<svg xmlns="http://www.w3.org/2000/svg" xmlns:xlink="http://www.w3.org/1999/xlink" width="500" zoomAndPan="magnify" viewBox="0 0 375 374.999991" height="500" preserveAspectRatio="xMidYMid meet" version="1.0"><defs><g/><clipPath id="dd1597223d"><path d="M 87.492188 65.488281 L 320.742188 65.488281 L 320.742188 185.488281 L 87.492188 185.488281 Z M 87.492188 65.488281 " clip-rule="nonzero"/></clipPath></defs><g clip-path="url(#dd1597223d)"><path fill="#ffffff" d="M 261.226562 185.167969 C 259.625 185.167969 258.320312 183.867188 258.320312 182.257812 C 258.320312 180.65625 259.625 179.351562 261.226562 179.351562 C 291.019531 179.351562 315.261719 155.113281 315.261719 125.320312 C 315.261719 95.527344 291.023438 71.289062 261.230469 71.289062 C 246.796875 71.289062 232.726562 77.203125 222.625 87.515625 C 210.90625 99.480469 209.039062 113.246094 206.875 129.1875 C 206.691406 130.550781 206.503906 131.925781 206.308594 133.316406 C 204.3125 147.59375 197.296875 160.707031 186.5625 170.234375 C 175.71875 179.863281 161.792969 185.167969 147.351562 185.167969 C 114.351562 185.167969 87.507812 158.320312 87.507812 125.320312 C 87.507812 92.320312 114.351562 65.476562 147.351562 65.476562 C 148.957031 65.476562 150.257812 66.777344 150.257812 68.382812 C 150.257812 69.988281 148.957031 71.289062 147.351562 71.289062 C 117.558594 71.289062 93.320312 95.527344 93.320312 125.320312 C 93.320312 155.113281 117.558594 179.351562 147.351562 179.351562 C 173.941406 179.351562 196.8125 159.214844 200.554688 132.507812 C 200.746094 131.125 200.929688 129.761719 201.117188 128.40625 C 203.320312 112.148438 205.40625 96.789062 218.472656 83.449219 C 229.660156 72.027344 245.242188 65.476562 261.226562 65.476562 C 261.230469 65.476562 261.226562 65.476562 261.230469 65.476562 C 294.226562 65.476562 321.074219 92.320312 321.074219 125.320312 C 321.074219 158.320312 294.226562 185.167969 261.226562 185.167969 " fill-opacity="1" fill-rule="nonzero"/></g><path fill="#ffffff" d="M 171.113281 160.320312 C 169.507812 160.320312 168.203125 159.019531 168.203125 157.414062 C 168.203125 146.710938 159.496094 138.003906 148.792969 138.003906 C 138.09375 138.003906 129.386719 146.710938 129.386719 157.414062 C 129.386719 159.019531 128.085938 160.320312 126.476562 160.320312 C 124.875 160.320312 123.570312 159.019531 123.570312 157.414062 C 123.570312 143.507812 134.886719 132.191406 148.792969 132.191406 C 162.703125 132.191406 174.019531 143.507812 174.019531 157.414062 C 174.019531 159.019531 172.71875 160.320312 171.113281 160.320312 " fill-opacity="1" fill-rule="nonzero"/><path fill="#ffffff" d="M 173.257812 117.324219 C 166.566406 117.324219 161.125 111.882812 161.125 105.191406 C 161.125 103.585938 162.425781 102.285156 164.03125 102.285156 C 165.636719 102.285156 166.9375 103.585938 166.9375 105.191406 C 166.9375 108.675781 169.773438 111.511719 173.257812 111.511719 C 176.742188 111.511719 179.574219 108.675781 179.574219 105.191406 C 179.574219 103.585938 180.878906 102.285156 182.480469 102.285156 C 184.085938 102.285156 185.386719 103.585938 185.386719 105.191406 C 185.386719 111.882812 179.945312 117.324219 173.257812 117.324219 " fill-opacity="1" fill-rule="nonzero"/><path fill="#ffffff" d="M 124.332031 117.324219 C 117.644531 117.324219 112.203125 111.882812 112.203125 105.191406 C 112.203125 103.585938 113.503906 102.285156 115.109375 102.285156 C 116.710938 102.285156 118.015625 103.585938 118.015625 105.191406 C 118.015625 108.675781 120.847656 111.511719 124.332031 111.511719 C 127.816406 111.511719 130.652344 108.675781 130.652344 105.191406 C 130.652344 103.585938 131.953125 102.285156 133.558594 102.285156 C 135.164062 102.285156 136.464844 103.585938 136.464844 105.191406 C 136.464844 111.882812 131.023438 117.324219 124.332031 117.324219 " fill-opacity="1" fill-rule="nonzero"/><path fill="#ffffff" d="M 259.90625 160.320312 C 245.996094 160.320312 234.679688 149.003906 234.679688 135.097656 C 234.679688 133.492188 235.984375 132.191406 237.585938 132.191406 C 239.195312 132.191406 240.496094 133.492188 240.496094 135.097656 C 240.496094 145.800781 249.203125 154.507812 259.90625 154.507812 C 270.609375 154.507812 279.3125 145.800781 279.3125 135.097656 C 279.3125 133.492188 280.617188 132.191406 282.222656 132.191406 C 283.828125 132.191406 285.128906 133.492188 285.128906 135.097656 C 285.128906 149.003906 273.8125 160.320312 259.90625 160.320312 " fill-opacity="1" fill-rule="nonzero"/><path fill="#ffffff" d="M 244.667969 117.324219 C 243.0625 117.324219 241.761719 116.023438 241.761719 114.417969 C 241.761719 110.933594 238.925781 108.097656 235.441406 108.097656 C 231.957031 108.097656 229.125 110.933594 229.125 114.417969 C 229.125 116.023438 227.824219 117.324219 226.21875 117.324219 C 224.613281 117.324219 223.3125 116.023438 223.3125 114.417969 C 223.3125 107.726562 228.753906 102.285156 235.441406 102.285156 C 242.132812 102.285156 247.574219 107.726562 247.574219 114.417969 C 247.574219 116.023438 246.273438 117.324219 244.667969 117.324219 " fill-opacity="1" fill-rule="nonzero"/><path fill="#ffffff" d="M 293.589844 117.324219 C 291.988281 117.324219 290.683594 116.023438 290.683594 114.417969 C 290.683594 110.933594 287.851562 108.097656 284.367188 108.097656 C 280.882812 108.097656 278.046875 110.933594 278.046875 114.417969 C 278.046875 116.023438 276.746094 117.324219 275.140625 117.324219 C 273.535156 117.324219 272.234375 116.023438 272.234375 114.417969 C 272.234375 107.726562 277.675781 102.285156 284.367188 102.285156 C 291.054688 102.285156 296.496094 107.726562 296.496094 114.417969 C 296.496094 116.023438 295.195312 117.324219 293.589844 117.324219 " fill-opacity="1" fill-rule="nonzero"/><g fill="#ffffff" fill-opacity="1"><g transform="translate(8.078463, 260.593565)"><g><path d="M 3.890625 -62.59375 C 4.335938 -63.945312 5.179688 -64.625 6.421875 -64.625 C 7.578125 -64.625 8.382812 -64.234375 8.84375 -63.453125 C 9.300781 -62.804688 9.53125 -61.476562 9.53125 -59.46875 C 9.53125 -58.882812 9.460938 -57.523438 9.328125 -55.390625 C 9.265625 -54.546875 9.234375 -52.3125 9.234375 -48.6875 C 9.234375 -42.207031 9.332031 -35.40625 9.53125 -28.28125 C 9.851562 -14.539062 10.367188 -7.316406 11.078125 -6.609375 C 11.660156 -5.898438 12.988281 -5.546875 15.0625 -5.546875 C 15.519531 -5.546875 17.53125 -5.609375 21.09375 -5.734375 C 24.394531 -5.859375 26.269531 -5.921875 26.71875 -5.921875 C 28.988281 -5.921875 30.515625 -5.566406 31.296875 -4.859375 C 32.003906 -4.015625 32.359375 -3.238281 32.359375 -2.53125 C 32.359375 -1.6875 32.035156 -1.035156 31.390625 -0.578125 C 30.804688 -0.128906 28.570312 0.289062 24.6875 0.6875 C 20.863281 1.070312 17.265625 1.265625 13.890625 1.265625 C 11.492188 1.265625 9.941406 1.132812 9.234375 0.875 C 5.671875 -0.226562 3.398438 -3.238281 2.421875 -8.15625 C 2.035156 -10.039062 1.84375 -12.601562 1.84375 -15.84375 C 1.84375 -20.4375 2.203125 -33.003906 2.921875 -53.546875 C 3.046875 -58.078125 3.367188 -61.09375 3.890625 -62.59375 Z M 3.890625 -62.59375 "/></g></g></g><g fill="#ffffff" fill-opacity="1"><g transform="translate(42.380465, 260.593565)"><g><path d="M 21.28125 -32.65625 C 19.925781 -34.144531 18.757812 -34.890625 17.78125 -34.890625 C 17.007812 -34.890625 15.878906 -34.046875 14.390625 -32.359375 C 13.085938 -30.742188 12.046875 -28.800781 11.265625 -26.53125 C 10.492188 -24.332031 10.109375 -22.320312 10.109375 -20.5 C 10.109375 -18.164062 10.753906 -16.90625 12.046875 -16.71875 L 12.34375 -16.71875 C 13.445312 -16.71875 14.90625 -17.65625 16.71875 -19.53125 C 18.46875 -21.34375 20.019531 -23.515625 21.375 -26.046875 C 21.894531 -27.015625 22.640625 -28.40625 23.609375 -30.21875 C 23.222656 -30.613281 22.445312 -31.425781 21.28125 -32.65625 Z M 29.25 -42.46875 C 29.769531 -43.050781 30.453125 -43.34375 31.296875 -43.34375 C 32.203125 -43.34375 33.007812 -42.988281 33.71875 -42.28125 C 34.300781 -41.695312 34.59375 -40.882812 34.59375 -39.84375 C 34.59375 -39.132812 34.5625 -38.582031 34.5 -38.1875 C 34.175781 -35.34375 33.945312 -29.0625 33.8125 -19.34375 C 33.6875 -8.644531 33.460938 -3.070312 33.140625 -2.625 C 32.753906 -2.039062 31.976562 -1.75 30.8125 -1.75 C 29.707031 -1.75 28.765625 -2.65625 27.984375 -4.46875 C 27.535156 -5.570312 27.050781 -7.613281 26.53125 -10.59375 C 26.007812 -13.570312 25.71875 -16 25.65625 -17.875 C 25.65625 -17.945312 25.625 -17.984375 25.5625 -17.984375 C 25.101562 -17.984375 23.9375 -17.007812 22.0625 -15.0625 C 18.363281 -10.851562 14.863281 -8.75 11.5625 -8.75 C 9.945312 -8.75 8.359375 -9.234375 6.796875 -10.203125 C 3.554688 -12.148438 1.9375 -15.328125 1.9375 -19.734375 C 1.9375 -21.148438 2.164062 -22.734375 2.625 -24.484375 C 4.238281 -30.453125 6.894531 -35.117188 10.59375 -38.484375 C 12.988281 -40.753906 15.414062 -41.890625 17.875 -41.890625 C 20.28125 -41.890625 22.421875 -40.851562 24.296875 -38.78125 C 25.265625 -37.738281 26.039062 -37.21875 26.625 -37.21875 C 27.34375 -37.21875 27.832031 -37.898438 28.09375 -39.265625 C 28.28125 -40.554688 28.664062 -41.625 29.25 -42.46875 Z M 29.25 -42.46875 "/></g></g></g><g fill="#ffffff" fill-opacity="1"><g transform="translate(78.917442, 260.593565)"><g><path d="M 4.5625 -44.21875 C 5.144531 -44.601562 5.664062 -44.796875 6.125 -44.796875 C 6.769531 -44.796875 7.484375 -44.34375 8.265625 -43.4375 C 8.847656 -42.726562 9.140625 -41.722656 9.140625 -40.421875 C 9.140625 -38.929688 9.007812 -36.859375 8.75 -34.203125 C 8.425781 -30.773438 8.265625 -28.054688 8.265625 -26.046875 C 8.265625 -19.304688 9.523438 -15.9375 12.046875 -15.9375 C 13.410156 -15.9375 15.097656 -16.972656 17.109375 -19.046875 C 19.046875 -20.921875 21.832031 -25.425781 25.46875 -32.5625 C 27.925781 -37.414062 29.800781 -40.6875 31.09375 -42.375 C 32.394531 -44.0625 33.691406 -44.90625 34.984375 -44.90625 C 35.242188 -44.90625 35.695312 -44.835938 36.34375 -44.703125 C 37.832031 -44.316406 38.773438 -43.085938 39.171875 -41.015625 C 39.617188 -39.003906 39.84375 -34.335938 39.84375 -27.015625 C 39.84375 -19.828125 39.648438 -15.453125 39.265625 -13.890625 C 38.941406 -12.398438 38.035156 -11.65625 36.546875 -11.65625 C 35.242188 -11.65625 34.429688 -12.238281 34.109375 -13.40625 C 33.722656 -14.632812 33.460938 -17.453125 33.328125 -21.859375 L 33.046875 -30.328125 C 32.585938 -29.410156 31.679688 -27.625 30.328125 -24.96875 C 25.015625 -14.414062 19.148438 -8.847656 12.734375 -8.265625 C 12.210938 -8.191406 11.5625 -8.15625 10.78125 -8.15625 C 9.425781 -8.15625 7.972656 -8.835938 6.421875 -10.203125 C 4.734375 -11.691406 3.53125 -13.503906 2.8125 -15.640625 C 2.039062 -17.785156 1.65625 -20.703125 1.65625 -24.390625 C 1.65625 -25.296875 1.71875 -26.945312 1.84375 -29.34375 C 2.363281 -38.351562 3.269531 -43.3125 4.5625 -44.21875 Z M 4.5625 -44.21875 "/></g></g></g><g fill="#ffffff" fill-opacity="1"><g transform="translate(120.31306, 260.593565)"><g><path d="M 2.8125 -44.40625 C 3.394531 -45.1875 4.207031 -45.578125 5.25 -45.578125 C 6.414062 -45.578125 7.191406 -45.253906 7.578125 -44.609375 C 8.035156 -44.023438 8.265625 -42.796875 8.265625 -40.921875 C 8.265625 -40.398438 8.195312 -38.875 8.0625 -36.34375 C 7.9375 -33.820312 7.875 -32.332031 7.875 -31.875 C 7.875 -30.445312 8.003906 -29.734375 8.265625 -29.734375 C 8.648438 -29.734375 9.457031 -30.898438 10.6875 -33.234375 C 12.5 -36.992188 14.894531 -40.007812 17.875 -42.28125 C 20.789062 -44.539062 23.613281 -45.671875 26.34375 -45.671875 C 28.539062 -45.671875 30.382812 -44.925781 31.875 -43.4375 C 32.78125 -42.53125 33.363281 -41.722656 33.625 -41.015625 C 33.820312 -40.367188 33.921875 -39.132812 33.921875 -37.3125 C 33.921875 -35.050781 33.691406 -33.5 33.234375 -32.65625 C 32.785156 -31.875 31.910156 -31.484375 30.609375 -31.484375 C 28.597656 -31.484375 27.59375 -33.203125 27.59375 -36.640625 C 27.59375 -38.253906 27.207031 -39.0625 26.4375 -39.0625 C 26.039062 -39.0625 25.097656 -38.640625 23.609375 -37.796875 C 18.617188 -34.753906 15.125 -26.492188 13.125 -13.015625 C 12.46875 -8.867188 11.785156 -6.085938 11.078125 -4.671875 C 10.367188 -3.242188 9.300781 -2.53125 7.875 -2.53125 C 5.40625 -2.53125 3.785156 -4.210938 3.015625 -7.578125 C 2.171875 -11.015625 1.75 -17.816406 1.75 -27.984375 C 1.75 -38.160156 2.101562 -43.632812 2.8125 -44.40625 Z M 2.8125 -44.40625 "/></g></g></g><g fill="#ffffff" fill-opacity="1"><g transform="translate(156.267001, 260.593565)"><g><path d="M 21.28125 -32.65625 C 19.925781 -34.144531 18.757812 -34.890625 17.78125 -34.890625 C 17.007812 -34.890625 15.878906 -34.046875 14.390625 -32.359375 C 13.085938 -30.742188 12.046875 -28.800781 11.265625 -26.53125 C 10.492188 -24.332031 10.109375 -22.320312 10.109375 -20.5 C 10.109375 -18.164062 10.753906 -16.90625 12.046875 -16.71875 L 12.34375 -16.71875 C 13.445312 -16.71875 14.90625 -17.65625 16.71875 -19.53125 C 18.46875 -21.34375 20.019531 -23.515625 21.375 -26.046875 C 21.894531 -27.015625 22.640625 -28.40625 23.609375 -30.21875 C 23.222656 -30.613281 22.445312 -31.425781 21.28125 -32.65625 Z M 29.25 -42.46875 C 29.769531 -43.050781 30.453125 -43.34375 31.296875 -43.34375 C 32.203125 -43.34375 33.007812 -42.988281 33.71875 -42.28125 C 34.300781 -41.695312 34.59375 -40.882812 34.59375 -39.84375 C 34.59375 -39.132812 34.5625 -38.582031 34.5 -38.1875 C 34.175781 -35.34375 33.945312 -29.0625 33.8125 -19.34375 C 33.6875 -8.644531 33.460938 -3.070312 33.140625 -2.625 C 32.753906 -2.039062 31.976562 -1.75 30.8125 -1.75 C 29.707031 -1.75 28.765625 -2.65625 27.984375 -4.46875 C 27.535156 -5.570312 27.050781 -7.613281 26.53125 -10.59375 C 26.007812 -13.570312 25.71875 -16 25.65625 -17.875 C 25.65625 -17.945312 25.625 -17.984375 25.5625 -17.984375 C 25.101562 -17.984375 23.9375 -17.007812 22.0625 -15.0625 C 18.363281 -10.851562 14.863281 -8.75 11.5625 -8.75 C 9.945312 -8.75 8.359375 -9.234375 6.796875 -10.203125 C 3.554688 -12.148438 1.9375 -15.328125 1.9375 -19.734375 C 1.9375 -21.148438 2.164062 -22.734375 2.625 -24.484375 C 4.238281 -30.453125 6.894531 -35.117188 10.59375 -38.484375 C 12.988281 -40.753906 15.414062 -41.890625 17.875 -41.890625 C 20.28125 -41.890625 22.421875 -40.851562 24.296875 -38.78125 C 25.265625 -37.738281 26.039062 -37.21875 26.625 -37.21875 C 27.34375 -37.21875 27.832031 -37.898438 28.09375 -39.265625 C 28.28125 -40.554688 28.664062 -41.625 29.25 -42.46875 Z M 29.25 -42.46875 "/></g></g></g><g fill="#ffffff" fill-opacity="1"><g transform="translate(192.803978, 260.593565)"><g/></g></g><g fill="#ffffff" fill-opacity="1"><g transform="translate(217.680218, 260.593565)"><g><path d="M 15.75 -61.328125 C 17.945312 -62.421875 20.210938 -62.96875 22.546875 -62.96875 C 27.078125 -62.96875 31.125 -60.929688 34.6875 -56.859375 C 36.570312 -54.710938 37.515625 -53.347656 37.515625 -52.765625 C 37.515625 -52.253906 37.316406 -51.640625 36.921875 -50.921875 C 36.410156 -50.078125 35.765625 -49.65625 34.984375 -49.65625 C 33.753906 -49.65625 31.972656 -50.726562 29.640625 -52.875 C 28.210938 -54.226562 27.113281 -55.097656 26.34375 -55.484375 C 25.5625 -55.878906 24.488281 -56.078125 23.125 -56.078125 C 20.925781 -56.078125 19.015625 -55.332031 17.390625 -53.84375 C 14.992188 -51.769531 13.148438 -48.660156 11.859375 -44.515625 C 10.492188 -40.296875 9.8125 -35.859375 9.8125 -31.203125 C 9.8125 -23.742188 11.269531 -17.71875 14.1875 -13.125 C 16.519531 -9.5625 18.984375 -7.78125 21.578125 -7.78125 C 23.003906 -7.78125 24.460938 -8.195312 25.953125 -9.03125 C 27.304688 -9.75 28.242188 -10.109375 28.765625 -10.109375 C 29.222656 -10.109375 29.675781 -9.914062 30.125 -9.53125 C 31.09375 -9.007812 31.578125 -8.257812 31.578125 -7.28125 C 31.578125 -6.125 30.898438 -4.992188 29.546875 -3.890625 C 28.179688 -2.785156 26.363281 -1.910156 24.09375 -1.265625 C 23.320312 -1.066406 22.546875 -0.96875 21.765625 -0.96875 C 18.921875 -0.96875 16.003906 -2.070312 13.015625 -4.28125 C 10.035156 -6.476562 7.707031 -9.328125 6.03125 -12.828125 C 3.300781 -18.335938 1.9375 -24.585938 1.9375 -31.578125 C 1.9375 -38.191406 3.171875 -44.285156 5.640625 -49.859375 C 8.097656 -55.429688 11.46875 -59.253906 15.75 -61.328125 Z M 15.75 -61.328125 "/></g></g></g><g fill="#ffffff" fill-opacity="1"><g transform="translate(257.229553, 260.593565)"><g><path d="M 2.8125 -44.40625 C 3.394531 -45.1875 4.207031 -45.578125 5.25 -45.578125 C 6.414062 -45.578125 7.191406 -45.253906 7.578125 -44.609375 C 8.035156 -44.023438 8.265625 -42.796875 8.265625 -40.921875 C 8.265625 -40.398438 8.195312 -38.875 8.0625 -36.34375 C 7.9375 -33.820312 7.875 -32.332031 7.875 -31.875 C 7.875 -30.445312 8.003906 -29.734375 8.265625 -29.734375 C 8.648438 -29.734375 9.457031 -30.898438 10.6875 -33.234375 C 12.5 -36.992188 14.894531 -40.007812 17.875 -42.28125 C 20.789062 -44.539062 23.613281 -45.671875 26.34375 -45.671875 C 28.539062 -45.671875 30.382812 -44.925781 31.875 -43.4375 C 32.78125 -42.53125 33.363281 -41.722656 33.625 -41.015625 C 33.820312 -40.367188 33.921875 -39.132812 33.921875 -37.3125 C 33.921875 -35.050781 33.691406 -33.5 33.234375 -32.65625 C 32.785156 -31.875 31.910156 -31.484375 30.609375 -31.484375 C 28.597656 -31.484375 27.59375 -33.203125 27.59375 -36.640625 C 27.59375 -38.253906 27.207031 -39.0625 26.4375 -39.0625 C 26.039062 -39.0625 25.097656 -38.640625 23.609375 -37.796875 C 18.617188 -34.753906 15.125 -26.492188 13.125 -13.015625 C 12.46875 -8.867188 11.785156 -6.085938 11.078125 -4.671875 C 10.367188 -3.242188 9.300781 -2.53125 7.875 -2.53125 C 5.40625 -2.53125 3.785156 -4.210938 3.015625 -7.578125 C 2.171875 -11.015625 1.75 -17.816406 1.75 -27.984375 C 1.75 -38.160156 2.101562 -43.632812 2.8125 -44.40625 Z M 2.8125 -44.40625 "/></g></g></g><g fill="#ffffff" fill-opacity="1"><g transform="translate(293.183493, 260.593565)"><g><path d="M 4.5625 -44.21875 C 5.144531 -44.601562 5.664062 -44.796875 6.125 -44.796875 C 6.769531 -44.796875 7.484375 -44.34375 8.265625 -43.4375 C 8.847656 -42.726562 9.140625 -41.722656 9.140625 -40.421875 C 9.140625 -38.929688 9.007812 -36.859375 8.75 -34.203125 C 8.425781 -30.773438 8.265625 -28.054688 8.265625 -26.046875 C 8.265625 -19.304688 9.523438 -15.9375 12.046875 -15.9375 C 13.410156 -15.9375 15.097656 -16.972656 17.109375 -19.046875 C 19.046875 -20.921875 21.832031 -25.425781 25.46875 -32.5625 C 27.925781 -37.414062 29.800781 -40.6875 31.09375 -42.375 C 32.394531 -44.0625 33.691406 -44.90625 34.984375 -44.90625 C 35.242188 -44.90625 35.695312 -44.835938 36.34375 -44.703125 C 37.832031 -44.316406 38.773438 -43.085938 39.171875 -41.015625 C 39.617188 -39.003906 39.84375 -34.335938 39.84375 -27.015625 C 39.84375 -19.828125 39.648438 -15.453125 39.265625 -13.890625 C 38.941406 -12.398438 38.035156 -11.65625 36.546875 -11.65625 C 35.242188 -11.65625 34.429688 -12.238281 34.109375 -13.40625 C 33.722656 -14.632812 33.460938 -17.453125 33.328125 -21.859375 L 33.046875 -30.328125 C 32.585938 -29.410156 31.679688 -27.625 30.328125 -24.96875 C 25.015625 -14.414062 19.148438 -8.847656 12.734375 -8.265625 C 12.210938 -8.191406 11.5625 -8.15625 10.78125 -8.15625 C 9.425781 -8.15625 7.972656 -8.835938 6.421875 -10.203125 C 4.734375 -11.691406 3.53125 -13.503906 2.8125 -15.640625 C 2.039062 -17.785156 1.65625 -20.703125 1.65625 -24.390625 C 1.65625 -25.296875 1.71875 -26.945312 1.84375 -29.34375 C 2.363281 -38.351562 3.269531 -43.3125 4.5625 -44.21875 Z M 4.5625 -44.21875 "/></g></g></g><g fill="#ffffff" fill-opacity="1"><g transform="translate(334.579111, 260.593565)"><g><path d="M 3.984375 -44.515625 C 5.148438 -45.097656 7.804688 -45.390625 11.953125 -45.390625 C 16.617188 -45.390625 19.695312 -45.0625 21.1875 -44.40625 C 24.289062 -43.050781 25.84375 -40.6875 25.84375 -37.3125 C 25.84375 -34.269531 23.15625 -28.441406 17.78125 -19.828125 C 14.738281 -14.960938 13.21875 -12.304688 13.21875 -11.859375 C 13.21875 -11.796875 13.929688 -11.765625 15.359375 -11.765625 C 18.015625 -11.765625 20.21875 -11.828125 21.96875 -11.953125 C 24.882812 -12.078125 26.664062 -12.140625 27.3125 -12.140625 C 29.570312 -12.140625 31.09375 -11.914062 31.875 -11.46875 C 32.582031 -11.082031 32.9375 -10.269531 32.9375 -9.03125 C 32.9375 -7.9375 32.582031 -7.128906 31.875 -6.609375 C 31.09375 -6.148438 29.832031 -5.921875 28.09375 -5.921875 C 26.40625 -5.921875 22.582031 -5.503906 16.625 -4.671875 C 12.664062 -4.085938 10.203125 -3.796875 9.234375 -3.796875 C 8.390625 -3.796875 7.453125 -4.148438 6.421875 -4.859375 C 4.859375 -6.023438 4.078125 -7.351562 4.078125 -8.84375 C 4.078125 -11.175781 6.25 -15.773438 10.59375 -22.640625 C 15.84375 -31.128906 18.46875 -36.085938 18.46875 -37.515625 C 18.46875 -37.898438 18.335938 -38.191406 18.078125 -38.390625 C 17.554688 -38.773438 15.644531 -38.96875 12.34375 -38.96875 L 9.234375 -38.96875 C 6.515625 -38.96875 4.632812 -39.128906 3.59375 -39.453125 C 2.488281 -39.847656 1.9375 -40.53125 1.9375 -41.5 L 1.9375 -42.078125 C 2.132812 -43.117188 2.816406 -43.929688 3.984375 -44.515625 Z M 3.984375 -44.515625 "/></g></g></g><g fill="#ffffff" fill-opacity="1"><g transform="translate(111.038369, 301.004319)"><g><path d="M 3.984375 0 L 2.078125 0 L 2.078125 -16.921875 L 9.6875 -16.921875 C 11.476562 -16.921875 12.898438 -16.425781 13.953125 -15.4375 C 14.992188 -14.445312 15.515625 -13.128906 15.515625 -11.484375 C 15.515625 -9.804688 14.988281 -8.476562 13.9375 -7.5 C 12.894531 -6.519531 11.476562 -6.03125 9.6875 -6.03125 L 3.984375 -6.03125 Z M 3.984375 -15.109375 L 3.984375 -7.828125 L 9.5625 -7.828125 C 10.882812 -7.828125 11.882812 -8.148438 12.5625 -8.796875 C 13.25 -9.441406 13.59375 -10.332031 13.59375 -11.46875 C 13.59375 -12.601562 13.25 -13.492188 12.5625 -14.140625 C 11.882812 -14.785156 10.882812 -15.109375 9.5625 -15.109375 Z M 3.984375 -15.109375 "/></g></g></g><g fill="#ffffff" fill-opacity="1"><g transform="translate(132.310172, 301.004319)"><g><path d="M 9.171875 -9.359375 C 9.003906 -10.679688 7.9375 -11.34375 5.96875 -11.34375 C 4 -11.34375 3.015625 -10.734375 3.015625 -9.515625 C 3.015625 -9.003906 3.222656 -8.613281 3.640625 -8.34375 C 4.054688 -8.082031 4.578125 -7.863281 5.203125 -7.6875 C 5.835938 -7.519531 6.523438 -7.363281 7.265625 -7.21875 C 8.015625 -7.070312 8.703125 -6.867188 9.328125 -6.609375 C 9.960938 -6.347656 10.488281 -5.984375 10.90625 -5.515625 C 11.320312 -5.054688 11.53125 -4.425781 11.53125 -3.625 C 11.53125 -2.382812 11.0625 -1.4375 10.125 -0.78125 C 9.1875 -0.125 7.914062 0.203125 6.3125 0.203125 C 4.601562 0.203125 3.25 -0.222656 2.25 -1.078125 C 1.332031 -1.828125 0.835938 -2.804688 0.765625 -4.015625 L 2.765625 -4.015625 C 2.878906 -2.835938 3.539062 -2.046875 4.75 -1.640625 C 5.195312 -1.503906 5.632812 -1.4375 6.0625 -1.4375 C 6.5 -1.4375 6.90625 -1.457031 7.28125 -1.5 C 7.65625 -1.550781 8.023438 -1.648438 8.390625 -1.796875 C 9.203125 -2.117188 9.609375 -2.671875 9.609375 -3.453125 C 9.609375 -3.984375 9.398438 -4.390625 8.984375 -4.671875 C 8.566406 -4.953125 8.039062 -5.179688 7.40625 -5.359375 C 6.78125 -5.535156 6.097656 -5.695312 5.359375 -5.84375 C 4.617188 -5.988281 3.929688 -6.1875 3.296875 -6.4375 C 2.671875 -6.695312 2.144531 -7.046875 1.71875 -7.484375 C 1.300781 -7.929688 1.09375 -8.546875 1.09375 -9.328125 C 1.09375 -10.484375 1.515625 -11.378906 2.359375 -12.015625 C 3.203125 -12.660156 4.453125 -12.984375 6.109375 -12.984375 C 7.679688 -12.984375 8.914062 -12.609375 9.8125 -11.859375 C 10.5625 -11.234375 11 -10.398438 11.125 -9.359375 Z M 9.171875 -9.359375 "/></g></g></g><g fill="#ffffff" fill-opacity="1"><g transform="translate(149.849727, 301.004319)"><g><path d="M 1.65625 -12.78125 L 3.578125 -12.78125 L 3.578125 0 L 1.65625 0 Z M 3.65625 -17.4375 L 3.65625 -14.921875 L 1.578125 -14.921875 L 1.578125 -17.4375 Z M 3.65625 -17.4375 "/></g></g></g><g fill="#ffffff" fill-opacity="1"><g transform="translate(160.308257, 301.004319)"><g><path d="M 7.5625 -1.53125 C 8.382812 -1.53125 9.109375 -1.757812 9.734375 -2.21875 C 10.367188 -2.6875 10.832031 -3.285156 11.125 -4.015625 L 13.1875 -4.015625 C 12.800781 -2.753906 12.085938 -1.738281 11.046875 -0.96875 C 9.953125 -0.1875 8.65625 0.203125 7.15625 0.203125 C 5.28125 0.203125 3.753906 -0.4375 2.578125 -1.71875 C 1.441406 -2.957031 0.875 -4.515625 0.875 -6.390625 C 0.875 -8.265625 1.441406 -9.820312 2.578125 -11.0625 C 3.753906 -12.34375 5.28125 -12.984375 7.15625 -12.984375 C 8.65625 -12.984375 9.953125 -12.59375 11.046875 -11.8125 C 12.085938 -11.039062 12.800781 -10.023438 13.1875 -8.765625 L 11.125 -8.765625 C 10.832031 -9.492188 10.367188 -10.085938 9.734375 -10.546875 C 9.109375 -11.015625 8.382812 -11.25 7.5625 -11.25 C 6.75 -11.25 6.054688 -11.117188 5.484375 -10.859375 C 4.910156 -10.609375 4.425781 -10.257812 4.03125 -9.8125 C 3.195312 -8.894531 2.78125 -7.753906 2.78125 -6.390625 C 2.78125 -5.023438 3.195312 -3.882812 4.03125 -2.96875 C 4.882812 -2.007812 6.0625 -1.53125 7.5625 -1.53125 Z M 7.5625 -1.53125 "/></g></g></g><g fill="#ffffff" fill-opacity="1"><g transform="translate(179.432744, 301.004319)"><g><path d="M 7.203125 -12.984375 C 9.117188 -12.984375 10.671875 -12.34375 11.859375 -11.0625 C 12.984375 -9.84375 13.546875 -8.285156 13.546875 -6.390625 C 13.546875 -4.492188 12.984375 -2.9375 11.859375 -1.71875 C 10.671875 -0.4375 9.117188 0.203125 7.203125 0.203125 C 5.296875 0.203125 3.75 -0.4375 2.5625 -1.71875 C 1.4375 -2.9375 0.875 -4.492188 0.875 -6.390625 C 0.875 -8.285156 1.4375 -9.84375 2.5625 -11.0625 C 3.75 -12.34375 5.296875 -12.984375 7.203125 -12.984375 Z M 7.203125 -1.53125 C 8.585938 -1.53125 9.679688 -2.007812 10.484375 -2.96875 C 11.242188 -3.863281 11.625 -5.003906 11.625 -6.390625 C 11.625 -7.773438 11.242188 -8.914062 10.484375 -9.8125 C 9.679688 -10.769531 8.585938 -11.25 7.203125 -11.25 C 5.828125 -11.25 4.738281 -10.769531 3.9375 -9.8125 C 3.164062 -8.914062 2.78125 -7.773438 2.78125 -6.390625 C 2.78125 -5.003906 3.164062 -3.863281 3.9375 -2.96875 C 4.738281 -2.007812 5.828125 -1.53125 7.203125 -1.53125 Z M 6.921875 -17.25 L 9.671875 -17.25 L 6.921875 -14.578125 L 5.375 -14.578125 Z M 6.921875 -17.25 "/></g></g></g><g fill="#ffffff" fill-opacity="1"><g transform="translate(199.0685, 301.004319)"><g><path d="M 3.578125 0 L 1.65625 0 L 1.65625 -17.890625 L 3.578125 -17.890625 Z M 3.578125 0 "/></g></g></g><g fill="#ffffff" fill-opacity="1"><g transform="translate(209.527035, 301.004319)"><g><path d="M 7.203125 -12.984375 C 9.117188 -12.984375 10.671875 -12.34375 11.859375 -11.0625 C 12.984375 -9.84375 13.546875 -8.285156 13.546875 -6.390625 C 13.546875 -4.492188 12.984375 -2.9375 11.859375 -1.71875 C 10.671875 -0.4375 9.117188 0.203125 7.203125 0.203125 C 5.296875 0.203125 3.75 -0.4375 2.5625 -1.71875 C 1.4375 -2.9375 0.875 -4.492188 0.875 -6.390625 C 0.875 -8.285156 1.4375 -9.84375 2.5625 -11.0625 C 3.75 -12.34375 5.296875 -12.984375 7.203125 -12.984375 Z M 7.203125 -1.53125 C 8.585938 -1.53125 9.679688 -2.007812 10.484375 -2.96875 C 11.242188 -3.863281 11.625 -5.003906 11.625 -6.390625 C 11.625 -7.773438 11.242188 -8.914062 10.484375 -9.8125 C 9.679688 -10.769531 8.585938 -11.25 7.203125 -11.25 C 5.828125 -11.25 4.738281 -10.769531 3.9375 -9.8125 C 3.164062 -8.914062 2.78125 -7.773438 2.78125 -6.390625 C 2.78125 -5.003906 3.164062 -3.863281 3.9375 -2.96875 C 4.738281 -2.007812 5.828125 -1.53125 7.203125 -1.53125 Z M 7.203125 -1.53125 "/></g></g></g><g fill="#ffffff" fill-opacity="1"><g transform="translate(229.162791, 301.004319)"><g><path d="M 11.625 -10.734375 L 11.625 -12.78125 L 13.546875 -12.78125 L 13.546875 -0.390625 C 13.546875 1.453125 13.019531 2.851562 11.96875 3.8125 C 10.925781 4.78125 9.519531 5.265625 7.75 5.265625 C 5.976562 5.265625 4.59375 4.921875 3.59375 4.234375 C 2.59375 3.554688 1.914062 2.65625 1.5625 1.53125 L 3.6875 1.53125 C 4.226562 2.863281 5.46875 3.53125 7.40625 3.53125 C 8.894531 3.53125 9.96875 3.1875 10.625 2.5 C 11.289062 1.820312 11.625 0.816406 11.625 -0.515625 L 11.625 -2.28125 C 10.59375 -0.757812 9.070312 0 7.0625 0 C 5.21875 0 3.71875 -0.628906 2.5625 -1.890625 C 1.4375 -3.117188 0.875 -4.65625 0.875 -6.5 C 0.875 -8.332031 1.4375 -9.863281 2.5625 -11.09375 C 3.71875 -12.351562 5.257812 -12.984375 7.1875 -12.984375 C 9.125 -12.984375 10.601562 -12.234375 11.625 -10.734375 Z M 7.3125 -1.734375 C 8.007812 -1.734375 8.628906 -1.859375 9.171875 -2.109375 C 9.722656 -2.359375 10.191406 -2.695312 10.578125 -3.125 C 11.347656 -4.007812 11.734375 -5.132812 11.734375 -6.5 C 11.734375 -7.851562 11.347656 -8.972656 10.578125 -9.859375 C 9.742188 -10.785156 8.65625 -11.25 7.3125 -11.25 C 5.925781 -11.25 4.816406 -10.785156 3.984375 -9.859375 C 3.179688 -8.960938 2.78125 -7.84375 2.78125 -6.5 C 2.78125 -5.144531 3.179688 -4.019531 3.984375 -3.125 C 4.816406 -2.195312 5.925781 -1.734375 7.3125 -1.734375 Z M 7.3125 -1.734375 "/></g></g></g><g fill="#ffffff" fill-opacity="1"><g transform="translate(249.591003, 301.004319)"><g><path d="M 11.625 -2.046875 C 10.601562 -0.546875 9.082031 0.203125 7.0625 0.203125 C 5.21875 0.203125 3.71875 -0.4375 2.5625 -1.71875 C 1.4375 -2.976562 0.875 -4.535156 0.875 -6.390625 C 0.875 -8.242188 1.4375 -9.800781 2.5625 -11.0625 C 3.71875 -12.34375 5.257812 -12.984375 7.1875 -12.984375 C 9.113281 -12.984375 10.59375 -12.222656 11.625 -10.703125 L 11.625 -12.78125 L 13.546875 -12.78125 L 13.546875 0 L 11.625 0 Z M 7.3125 -1.53125 C 8.6875 -1.53125 9.773438 -2.007812 10.578125 -2.96875 C 11.347656 -3.863281 11.734375 -5.003906 11.734375 -6.390625 C 11.734375 -7.773438 11.347656 -8.914062 10.578125 -9.8125 C 9.773438 -10.769531 8.6875 -11.25 7.3125 -11.25 C 5.945312 -11.25 4.835938 -10.769531 3.984375 -9.8125 C 3.179688 -8.914062 2.78125 -7.773438 2.78125 -6.390625 C 2.78125 -5.003906 3.179688 -3.863281 3.984375 -2.96875 C 4.835938 -2.007812 5.945312 -1.53125 7.3125 -1.53125 Z M 7.3125 -1.53125 "/></g></g></g></svg>