<svg xmlns="http://www.w3.org/2000/svg" xmlns:xlink="http://www.w3.org/1999/xlink" width="500" zoomAndPan="magnify" viewBox="0 0 375 374.999991" height="500" preserveAspectRatio="xMidYMid meet" version="1.0"><defs><g/><clipPath id="2c6a7d3496"><path d="M 87.066406 63.636719 L 321 63.636719 L 321 183.636719 L 87.066406 183.636719 Z M 87.066406 63.636719 " clip-rule="nonzero"/></clipPath></defs><g clip-path="url(#2c6a7d3496)"><path fill="#7289da" d="M 261.019531 183.464844 C 259.410156 183.464844 258.109375 182.160156 258.109375 180.554688 C 258.109375 178.945312 259.410156 177.644531 261.019531 177.644531 C 290.847656 177.644531 315.117188 153.375 315.117188 123.542969 C 315.117188 93.714844 290.847656 69.445312 261.019531 69.445312 C 246.566406 69.445312 232.480469 75.367188 222.367188 85.691406 C 210.632812 97.671875 208.761719 111.457031 206.597656 127.417969 C 206.414062 128.777344 206.226562 130.15625 206.03125 131.546875 C 204.027344 145.84375 197.007812 158.972656 186.261719 168.515625 C 175.402344 178.15625 161.460938 183.464844 147 183.464844 C 113.957031 183.464844 87.078125 156.585938 87.078125 123.542969 C 87.078125 90.503906 113.957031 63.625 147 63.625 C 148.605469 63.625 149.910156 64.925781 149.910156 66.535156 C 149.910156 68.140625 148.605469 69.445312 147 69.445312 C 117.167969 69.445312 92.898438 93.714844 92.898438 123.542969 C 92.898438 153.375 117.167969 177.644531 147 177.644531 C 173.621094 177.644531 196.519531 157.480469 200.265625 130.742188 C 200.460938 129.355469 200.644531 127.988281 200.828125 126.632812 C 203.039062 110.355469 205.125 94.976562 218.207031 81.617188 C 229.410156 70.183594 245.011719 63.625 261.019531 63.625 C 294.058594 63.625 320.9375 90.503906 320.9375 123.542969 C 320.9375 156.585938 294.058594 183.464844 261.019531 183.464844 " fill-opacity="1" fill-rule="nonzero"/></g><path fill="#7289da" d="M 170.789062 158.589844 C 169.179688 158.589844 167.878906 157.285156 167.878906 155.679688 C 167.878906 144.960938 159.160156 136.242188 148.441406 136.242188 C 137.726562 136.242188 129.007812 144.960938 129.007812 155.679688 C 129.007812 157.285156 127.707031 158.589844 126.097656 158.589844 C 124.492188 158.589844 123.1875 157.285156 123.1875 155.679688 C 123.1875 141.753906 134.519531 130.421875 148.441406 130.421875 C 162.371094 130.421875 173.699219 141.753906 173.699219 155.679688 C 173.699219 157.285156 172.394531 158.589844 170.789062 158.589844 " fill-opacity="1" fill-rule="nonzero"/><path fill="#7289da" d="M 172.9375 115.539062 C 166.238281 115.539062 160.789062 110.089844 160.789062 103.390625 C 160.789062 101.785156 162.09375 100.480469 163.699219 100.480469 C 165.308594 100.480469 166.609375 101.785156 166.609375 103.390625 C 166.609375 106.878906 169.445312 109.714844 172.9375 109.714844 C 176.425781 109.714844 179.261719 106.878906 179.261719 103.390625 C 179.261719 101.785156 180.566406 100.480469 182.171875 100.480469 C 183.78125 100.480469 185.082031 101.785156 185.082031 103.390625 C 185.082031 110.089844 179.632812 115.539062 172.9375 115.539062 " fill-opacity="1" fill-rule="nonzero"/><path fill="#7289da" d="M 123.953125 115.539062 C 117.253906 115.539062 111.804688 110.089844 111.804688 103.390625 C 111.804688 101.785156 113.105469 100.480469 114.714844 100.480469 C 116.320312 100.480469 117.625 101.785156 117.625 103.390625 C 117.625 106.878906 120.460938 109.714844 123.953125 109.714844 C 127.441406 109.714844 130.277344 106.878906 130.277344 103.390625 C 130.277344 101.785156 131.582031 100.480469 133.1875 100.480469 C 134.796875 100.480469 136.097656 101.785156 136.097656 103.390625 C 136.097656 110.089844 130.648438 115.539062 123.953125 115.539062 " fill-opacity="1" fill-rule="nonzero"/><path fill="#7289da" d="M 259.691406 158.589844 C 245.765625 158.589844 234.4375 147.257812 234.4375 133.332031 C 234.4375 131.726562 235.742188 130.421875 237.347656 130.421875 C 238.957031 130.421875 240.257812 131.726562 240.257812 133.332031 C 240.257812 144.050781 248.976562 152.769531 259.691406 152.769531 C 270.410156 152.769531 279.125 144.050781 279.125 133.332031 C 279.125 131.726562 280.429688 130.421875 282.035156 130.421875 C 283.644531 130.421875 284.949219 131.726562 284.949219 133.332031 C 284.949219 147.257812 273.617188 158.589844 259.691406 158.589844 " fill-opacity="1" fill-rule="nonzero"/><path fill="#7289da" d="M 244.4375 115.539062 C 242.828125 115.539062 241.527344 114.234375 241.527344 112.628906 C 241.527344 109.136719 238.6875 106.300781 235.199219 106.300781 C 231.710938 106.300781 228.875 109.136719 228.875 112.628906 C 228.875 114.234375 227.570312 115.539062 225.964844 115.539062 C 224.355469 115.539062 223.054688 114.234375 223.054688 112.628906 C 223.054688 105.929688 228.503906 100.480469 235.199219 100.480469 C 241.898438 100.480469 247.347656 105.929688 247.347656 112.628906 C 247.347656 114.234375 246.042969 115.539062 244.4375 115.539062 " fill-opacity="1" fill-rule="nonzero"/><path fill="#7289da" d="M 293.421875 115.539062 C 291.816406 115.539062 290.511719 114.234375 290.511719 112.628906 C 290.511719 109.136719 287.671875 106.300781 284.183594 106.300781 C 280.695312 106.300781 277.859375 109.136719 277.859375 112.628906 C 277.859375 114.234375 276.554688 115.539062 274.949219 115.539062 C 273.339844 115.539062 272.039062 114.234375 272.039062 112.628906 C 272.039062 105.929688 277.488281 100.480469 284.183594 100.480469 C 290.882812 100.480469 296.332031 105.929688 296.332031 112.628906 C 296.332031 114.234375 295.03125 115.539062 293.421875 115.539062 " fill-opacity="1" fill-rule="nonzero"/><g fill="#7289da" fill-opacity="1"><g transform="translate(7.551123, 259.206555)"><g><path d="M 3.890625 -62.671875 C 4.347656 -64.023438 5.191406 -64.703125 6.421875 -64.703125 C 7.585938 -64.703125 8.398438 -64.316406 8.859375 -63.546875 C 9.304688 -62.890625 9.53125 -61.554688 9.53125 -59.546875 C 9.53125 -58.960938 9.46875 -57.601562 9.34375 -55.46875 C 9.28125 -54.625 9.25 -52.382812 9.25 -48.75 C 9.25 -42.257812 9.34375 -35.445312 9.53125 -28.3125 C 9.851562 -14.5625 10.375 -7.328125 11.09375 -6.609375 C 11.675781 -5.898438 13.003906 -5.546875 15.078125 -5.546875 C 15.535156 -5.546875 17.546875 -5.609375 21.109375 -5.734375 C 24.421875 -5.867188 26.304688 -5.9375 26.765625 -5.9375 C 29.035156 -5.9375 30.554688 -5.578125 31.328125 -4.859375 C 32.046875 -4.015625 32.40625 -3.238281 32.40625 -2.53125 C 32.40625 -1.6875 32.078125 -1.035156 31.421875 -0.578125 C 30.835938 -0.128906 28.601562 0.289062 24.71875 0.6875 C 20.882812 1.070312 17.285156 1.265625 13.921875 1.265625 C 11.515625 1.265625 9.957031 1.132812 9.25 0.875 C 5.675781 -0.226562 3.40625 -3.242188 2.4375 -8.171875 C 2.039062 -10.054688 1.84375 -12.617188 1.84375 -15.859375 C 1.84375 -20.460938 2.203125 -33.046875 2.921875 -53.609375 C 3.046875 -58.148438 3.367188 -61.171875 3.890625 -62.671875 Z M 3.890625 -62.671875 "/></g></g></g><g fill="#7289da" fill-opacity="1"><g transform="translate(41.895968, 259.206555)"><g><path d="M 21.3125 -32.6875 C 19.945312 -34.1875 18.78125 -34.9375 17.8125 -34.9375 C 17.03125 -34.9375 15.894531 -34.09375 14.40625 -32.40625 C 13.101562 -30.78125 12.0625 -28.832031 11.28125 -26.5625 C 10.507812 -24.351562 10.125 -22.34375 10.125 -20.53125 C 10.125 -18.195312 10.769531 -16.929688 12.0625 -16.734375 L 12.359375 -16.734375 C 13.460938 -16.734375 14.921875 -17.675781 16.734375 -19.5625 C 18.484375 -21.375 20.039062 -23.546875 21.40625 -26.078125 C 21.925781 -27.046875 22.671875 -28.441406 23.640625 -30.265625 C 23.253906 -30.648438 22.476562 -31.457031 21.3125 -32.6875 Z M 29.28125 -42.515625 C 29.800781 -43.097656 30.484375 -43.390625 31.328125 -43.390625 C 32.234375 -43.390625 33.046875 -43.035156 33.765625 -42.328125 C 34.347656 -41.742188 34.640625 -40.929688 34.640625 -39.890625 C 34.640625 -39.179688 34.609375 -38.628906 34.546875 -38.234375 C 34.222656 -35.378906 33.992188 -29.085938 33.859375 -19.359375 C 33.734375 -8.660156 33.507812 -3.082031 33.1875 -2.625 C 32.789062 -2.039062 32.007812 -1.75 30.84375 -1.75 C 29.738281 -1.75 28.800781 -2.65625 28.03125 -4.46875 C 27.570312 -5.570312 27.082031 -7.617188 26.5625 -10.609375 C 26.039062 -13.585938 25.75 -16.019531 25.6875 -17.90625 C 25.6875 -17.96875 25.65625 -18 25.59375 -18 C 25.132812 -18 23.96875 -17.023438 22.09375 -15.078125 C 18.394531 -10.859375 14.890625 -8.75 11.578125 -8.75 C 9.953125 -8.75 8.363281 -9.238281 6.8125 -10.21875 C 3.570312 -12.164062 1.953125 -15.34375 1.953125 -19.75 C 1.953125 -21.175781 2.175781 -22.765625 2.625 -24.515625 C 4.25 -30.484375 6.910156 -35.15625 10.609375 -38.53125 C 13.003906 -40.800781 15.4375 -41.9375 17.90625 -41.9375 C 20.300781 -41.9375 22.441406 -40.898438 24.328125 -38.828125 C 25.296875 -37.785156 26.070312 -37.265625 26.65625 -37.265625 C 27.375 -37.265625 27.863281 -37.945312 28.125 -39.3125 C 28.3125 -40.601562 28.695312 -41.671875 29.28125 -42.515625 Z M 29.28125 -42.515625 "/></g></g></g><g fill="#7289da" fill-opacity="1"><g transform="translate(78.47858, 259.206555)"><g><path d="M 4.578125 -44.28125 C 5.160156 -44.664062 5.675781 -44.859375 6.125 -44.859375 C 6.78125 -44.859375 7.492188 -44.40625 8.265625 -43.5 C 8.847656 -42.78125 9.140625 -41.773438 9.140625 -40.484375 C 9.140625 -38.984375 9.007812 -36.90625 8.75 -34.25 C 8.425781 -30.8125 8.265625 -28.085938 8.265625 -26.078125 C 8.265625 -19.328125 9.53125 -15.953125 12.0625 -15.953125 C 13.425781 -15.953125 15.113281 -16.992188 17.125 -19.078125 C 19.070312 -20.953125 21.863281 -25.457031 25.5 -32.59375 C 27.957031 -37.457031 29.835938 -40.734375 31.140625 -42.421875 C 32.429688 -44.109375 33.726562 -44.953125 35.03125 -44.953125 C 35.289062 -44.953125 35.742188 -44.890625 36.390625 -44.765625 C 37.878906 -44.367188 38.820312 -43.132812 39.21875 -41.0625 C 39.664062 -39.050781 39.890625 -34.378906 39.890625 -27.046875 C 39.890625 -19.847656 39.695312 -15.472656 39.3125 -13.921875 C 38.988281 -12.421875 38.082031 -11.671875 36.59375 -11.671875 C 35.289062 -11.671875 34.476562 -12.253906 34.15625 -13.421875 C 33.769531 -14.660156 33.507812 -17.484375 33.375 -21.890625 L 33.078125 -30.359375 C 32.628906 -29.453125 31.722656 -27.664062 30.359375 -25 C 25.035156 -14.425781 19.164062 -8.847656 12.75 -8.265625 C 12.226562 -8.203125 11.578125 -8.171875 10.796875 -8.171875 C 9.429688 -8.171875 7.972656 -8.851562 6.421875 -10.21875 C 4.734375 -11.707031 3.535156 -13.523438 2.828125 -15.671875 C 2.046875 -17.804688 1.65625 -20.722656 1.65625 -24.421875 C 1.65625 -25.328125 1.71875 -26.984375 1.84375 -29.390625 C 2.363281 -38.398438 3.273438 -43.363281 4.578125 -44.28125 Z M 4.578125 -44.28125 "/></g></g></g><g fill="#7289da" fill-opacity="1"><g transform="translate(119.925901, 259.206555)"><g><path d="M 2.828125 -44.46875 C 3.410156 -45.25 4.21875 -45.640625 5.25 -45.640625 C 6.414062 -45.640625 7.195312 -45.3125 7.59375 -44.65625 C 8.039062 -44.070312 8.265625 -42.84375 8.265625 -40.96875 C 8.265625 -40.445312 8.203125 -38.921875 8.078125 -36.390625 C 7.941406 -33.859375 7.875 -32.367188 7.875 -31.921875 C 7.875 -30.492188 8.003906 -29.78125 8.265625 -29.78125 C 8.660156 -29.78125 9.472656 -30.945312 10.703125 -33.28125 C 12.515625 -37.039062 14.914062 -40.054688 17.90625 -42.328125 C 20.820312 -44.597656 23.644531 -45.734375 26.375 -45.734375 C 28.570312 -45.734375 30.421875 -44.988281 31.921875 -43.5 C 32.828125 -42.59375 33.410156 -41.78125 33.671875 -41.0625 C 33.859375 -40.414062 33.953125 -39.179688 33.953125 -37.359375 C 33.953125 -35.085938 33.726562 -33.53125 33.28125 -32.6875 C 32.820312 -31.914062 31.945312 -31.53125 30.65625 -31.53125 C 28.644531 -31.53125 27.640625 -33.25 27.640625 -36.6875 C 27.640625 -38.300781 27.25 -39.109375 26.46875 -39.109375 C 26.082031 -39.109375 25.140625 -38.691406 23.640625 -37.859375 C 18.648438 -34.804688 15.148438 -26.53125 13.140625 -13.03125 C 12.484375 -8.882812 11.800781 -6.097656 11.09375 -4.671875 C 10.375 -3.242188 9.300781 -2.53125 7.875 -2.53125 C 5.414062 -2.53125 3.796875 -4.21875 3.015625 -7.59375 C 2.171875 -11.03125 1.75 -17.84375 1.75 -28.03125 C 1.75 -38.207031 2.109375 -43.6875 2.828125 -44.46875 Z M 2.828125 -44.46875 "/></g></g></g><g fill="#7289da" fill-opacity="1"><g transform="translate(155.924748, 259.206555)"><g><path d="M 21.3125 -32.6875 C 19.945312 -34.1875 18.78125 -34.9375 17.8125 -34.9375 C 17.03125 -34.9375 15.894531 -34.09375 14.40625 -32.40625 C 13.101562 -30.78125 12.0625 -28.832031 11.28125 -26.5625 C 10.507812 -24.351562 10.125 -22.34375 10.125 -20.53125 C 10.125 -18.195312 10.769531 -16.929688 12.0625 -16.734375 L 12.359375 -16.734375 C 13.460938 -16.734375 14.921875 -17.675781 16.734375 -19.5625 C 18.484375 -21.375 20.039062 -23.546875 21.40625 -26.078125 C 21.925781 -27.046875 22.671875 -28.441406 23.640625 -30.265625 C 23.253906 -30.648438 22.476562 -31.457031 21.3125 -32.6875 Z M 29.28125 -42.515625 C 29.800781 -43.097656 30.484375 -43.390625 31.328125 -43.390625 C 32.234375 -43.390625 33.046875 -43.035156 33.765625 -42.328125 C 34.347656 -41.742188 34.640625 -40.929688 34.640625 -39.890625 C 34.640625 -39.179688 34.609375 -38.628906 34.546875 -38.234375 C 34.222656 -35.378906 33.992188 -29.085938 33.859375 -19.359375 C 33.734375 -8.660156 33.507812 -3.082031 33.1875 -2.625 C 32.789062 -2.039062 32.007812 -1.75 30.84375 -1.75 C 29.738281 -1.75 28.800781 -2.65625 28.03125 -4.46875 C 27.570312 -5.570312 27.082031 -7.617188 26.5625 -10.609375 C 26.039062 -13.585938 25.75 -16.019531 25.6875 -17.90625 C 25.6875 -17.96875 25.65625 -18 25.59375 -18 C 25.132812 -18 23.96875 -17.023438 22.09375 -15.078125 C 18.394531 -10.859375 14.890625 -8.75 11.578125 -8.75 C 9.953125 -8.75 8.363281 -9.238281 6.8125 -10.21875 C 3.570312 -12.164062 1.953125 -15.34375 1.953125 -19.75 C 1.953125 -21.175781 2.175781 -22.765625 2.625 -24.515625 C 4.25 -30.484375 6.910156 -35.15625 10.609375 -38.53125 C 13.003906 -40.800781 15.4375 -41.9375 17.90625 -41.9375 C 20.300781 -41.9375 22.441406 -40.898438 24.328125 -38.828125 C 25.296875 -37.785156 26.070312 -37.265625 26.65625 -37.265625 C 27.375 -37.265625 27.863281 -37.945312 28.125 -39.3125 C 28.3125 -40.601562 28.695312 -41.671875 29.28125 -42.515625 Z M 29.28125 -42.515625 "/></g></g></g><g fill="#7289da" fill-opacity="1"><g transform="translate(192.507359, 259.206555)"><g/></g></g><g fill="#7289da" fill-opacity="1"><g transform="translate(217.41467, 259.206555)"><g><path d="M 15.765625 -61.40625 C 17.972656 -62.5 20.242188 -63.046875 22.578125 -63.046875 C 27.117188 -63.046875 31.171875 -61.003906 34.734375 -56.921875 C 36.617188 -54.785156 37.5625 -53.425781 37.5625 -52.84375 C 37.5625 -52.320312 37.363281 -51.703125 36.96875 -50.984375 C 36.457031 -50.140625 35.8125 -49.71875 35.03125 -49.71875 C 33.800781 -49.71875 32.015625 -50.789062 29.671875 -52.9375 C 28.242188 -54.300781 27.144531 -55.175781 26.375 -55.5625 C 25.59375 -55.945312 24.519531 -56.140625 23.15625 -56.140625 C 20.945312 -56.140625 19.035156 -55.394531 17.421875 -53.90625 C 15.015625 -51.832031 13.164062 -48.71875 11.875 -44.5625 C 10.507812 -40.34375 9.828125 -35.898438 9.828125 -31.234375 C 9.828125 -23.773438 11.285156 -17.742188 14.203125 -13.140625 C 16.535156 -9.566406 19.003906 -7.78125 21.609375 -7.78125 C 23.035156 -7.78125 24.492188 -8.203125 25.984375 -9.046875 C 27.347656 -9.765625 28.285156 -10.125 28.796875 -10.125 C 29.253906 -10.125 29.710938 -9.925781 30.171875 -9.53125 C 31.140625 -9.007812 31.625 -8.265625 31.625 -7.296875 C 31.625 -6.128906 30.941406 -4.992188 29.578125 -3.890625 C 28.210938 -2.785156 26.394531 -1.910156 24.125 -1.265625 C 23.351562 -1.066406 22.578125 -0.96875 21.796875 -0.96875 C 18.941406 -0.96875 16.019531 -2.070312 13.03125 -4.28125 C 10.050781 -6.488281 7.71875 -9.34375 6.03125 -12.84375 C 3.3125 -18.351562 1.953125 -24.613281 1.953125 -31.625 C 1.953125 -38.238281 3.179688 -44.335938 5.640625 -49.921875 C 8.109375 -55.492188 11.484375 -59.320312 15.765625 -61.40625 Z M 15.765625 -61.40625 "/></g></g></g><g fill="#7289da" fill-opacity="1"><g transform="translate(257.013402, 259.206555)"><g><path d="M 2.828125 -44.46875 C 3.410156 -45.25 4.21875 -45.640625 5.25 -45.640625 C 6.414062 -45.640625 7.195312 -45.3125 7.59375 -44.65625 C 8.039062 -44.070312 8.265625 -42.84375 8.265625 -40.96875 C 8.265625 -40.445312 8.203125 -38.921875 8.078125 -36.390625 C 7.941406 -33.859375 7.875 -32.367188 7.875 -31.921875 C 7.875 -30.492188 8.003906 -29.78125 8.265625 -29.78125 C 8.660156 -29.78125 9.472656 -30.945312 10.703125 -33.28125 C 12.515625 -37.039062 14.914062 -40.054688 17.90625 -42.328125 C 20.820312 -44.597656 23.644531 -45.734375 26.375 -45.734375 C 28.570312 -45.734375 30.421875 -44.988281 31.921875 -43.5 C 32.828125 -42.59375 33.410156 -41.78125 33.671875 -41.0625 C 33.859375 -40.414062 33.953125 -39.179688 33.953125 -37.359375 C 33.953125 -35.085938 33.726562 -33.53125 33.28125 -32.6875 C 32.820312 -31.914062 31.945312 -31.53125 30.65625 -31.53125 C 28.644531 -31.53125 27.640625 -33.25 27.640625 -36.6875 C 27.640625 -38.300781 27.25 -39.109375 26.46875 -39.109375 C 26.082031 -39.109375 25.140625 -38.691406 23.640625 -37.859375 C 18.648438 -34.804688 15.148438 -26.53125 13.140625 -13.03125 C 12.484375 -8.882812 11.800781 -6.097656 11.09375 -4.671875 C 10.375 -3.242188 9.300781 -2.53125 7.875 -2.53125 C 5.414062 -2.53125 3.796875 -4.21875 3.015625 -7.59375 C 2.171875 -11.03125 1.75 -17.84375 1.75 -28.03125 C 1.75 -38.207031 2.109375 -43.6875 2.828125 -44.46875 Z M 2.828125 -44.46875 "/></g></g></g><g fill="#7289da" fill-opacity="1"><g transform="translate(293.012248, 259.206555)"><g><path d="M 4.578125 -44.28125 C 5.160156 -44.664062 5.675781 -44.859375 6.125 -44.859375 C 6.78125 -44.859375 7.492188 -44.40625 8.265625 -43.5 C 8.847656 -42.78125 9.140625 -41.773438 9.140625 -40.484375 C 9.140625 -38.984375 9.007812 -36.90625 8.75 -34.25 C 8.425781 -30.8125 8.265625 -28.085938 8.265625 -26.078125 C 8.265625 -19.328125 9.53125 -15.953125 12.0625 -15.953125 C 13.425781 -15.953125 15.113281 -16.992188 17.125 -19.078125 C 19.070312 -20.953125 21.863281 -25.457031 25.5 -32.59375 C 27.957031 -37.457031 29.835938 -40.734375 31.140625 -42.421875 C 32.429688 -44.109375 33.726562 -44.953125 35.03125 -44.953125 C 35.289062 -44.953125 35.742188 -44.890625 36.390625 -44.765625 C 37.878906 -44.367188 38.820312 -43.132812 39.21875 -41.0625 C 39.664062 -39.050781 39.890625 -34.378906 39.890625 -27.046875 C 39.890625 -19.847656 39.695312 -15.472656 39.3125 -13.921875 C 38.988281 -12.421875 38.082031 -11.671875 36.59375 -11.671875 C 35.289062 -11.671875 34.476562 -12.253906 34.15625 -13.421875 C 33.769531 -14.660156 33.507812 -17.484375 33.375 -21.890625 L 33.078125 -30.359375 C 32.628906 -29.453125 31.722656 -27.664062 30.359375 -25 C 25.035156 -14.425781 19.164062 -8.847656 12.75 -8.265625 C 12.226562 -8.203125 11.578125 -8.171875 10.796875 -8.171875 C 9.429688 -8.171875 7.972656 -8.851562 6.421875 -10.21875 C 4.734375 -11.707031 3.535156 -13.523438 2.828125 -15.671875 C 2.046875 -17.804688 1.65625 -20.722656 1.65625 -24.421875 C 1.65625 -25.328125 1.71875 -26.984375 1.84375 -29.390625 C 2.363281 -38.398438 3.273438 -43.363281 4.578125 -44.28125 Z M 4.578125 -44.28125 "/></g></g></g><g fill="#7289da" fill-opacity="1"><g transform="translate(334.459569, 259.206555)"><g><path d="M 3.984375 -44.5625 C 5.148438 -45.144531 7.8125 -45.4375 11.96875 -45.4375 C 16.632812 -45.4375 19.71875 -45.113281 21.21875 -44.46875 C 24.332031 -43.101562 25.890625 -40.734375 25.890625 -37.359375 C 25.890625 -34.316406 23.195312 -28.476562 17.8125 -19.84375 C 14.757812 -14.976562 13.234375 -12.320312 13.234375 -11.875 C 13.234375 -11.8125 13.945312 -11.78125 15.375 -11.78125 C 18.03125 -11.78125 20.234375 -11.84375 21.984375 -11.96875 C 24.910156 -12.09375 26.695312 -12.15625 27.34375 -12.15625 C 29.613281 -12.15625 31.140625 -11.929688 31.921875 -11.484375 C 32.628906 -11.085938 32.984375 -10.273438 32.984375 -9.046875 C 32.984375 -7.941406 32.628906 -7.128906 31.921875 -6.609375 C 31.140625 -6.160156 29.875 -5.9375 28.125 -5.9375 C 26.4375 -5.9375 22.609375 -5.515625 16.640625 -4.671875 C 12.679688 -4.085938 10.21875 -3.796875 9.25 -3.796875 C 8.40625 -3.796875 7.460938 -4.148438 6.421875 -4.859375 C 4.867188 -6.023438 4.09375 -7.359375 4.09375 -8.859375 C 4.09375 -11.191406 6.265625 -15.796875 10.609375 -22.671875 C 15.859375 -31.171875 18.484375 -36.132812 18.484375 -37.5625 C 18.484375 -37.945312 18.351562 -38.238281 18.09375 -38.4375 C 17.582031 -38.820312 15.671875 -39.015625 12.359375 -39.015625 L 9.25 -39.015625 C 6.519531 -39.015625 4.632812 -39.175781 3.59375 -39.5 C 2.5 -39.894531 1.953125 -40.578125 1.953125 -41.546875 L 1.953125 -42.140625 C 2.140625 -43.171875 2.816406 -43.976562 3.984375 -44.5625 Z M 3.984375 -44.5625 "/></g></g></g><g fill="#23272a" fill-opacity="1"><g transform="translate(106.040563, 300.09554)"><g><path d="M 4.234375 0 L 2.203125 0 L 2.203125 -17.953125 L 10.28125 -17.953125 C 12.175781 -17.953125 13.6875 -17.429688 14.8125 -16.390625 C 15.914062 -15.335938 16.46875 -13.929688 16.46875 -12.171875 C 16.46875 -10.398438 15.910156 -8.992188 14.796875 -7.953125 C 13.679688 -6.921875 12.175781 -6.40625 10.28125 -6.40625 L 4.234375 -6.40625 Z M 4.234375 -16.03125 L 4.234375 -8.296875 L 10.140625 -8.296875 C 11.554688 -8.296875 12.625 -8.640625 13.34375 -9.328125 C 14.070312 -10.015625 14.4375 -10.957031 14.4375 -12.15625 C 14.4375 -13.363281 14.070312 -14.3125 13.34375 -15 C 12.625 -15.6875 11.554688 -16.03125 10.140625 -16.03125 Z M 4.234375 -16.03125 "/></g></g></g><g fill="#23272a" fill-opacity="1"><g transform="translate(128.611278, 300.09554)"><g><path d="M 9.734375 -9.921875 C 9.554688 -11.335938 8.421875 -12.046875 6.328125 -12.046875 C 4.242188 -12.046875 3.203125 -11.394531 3.203125 -10.09375 C 3.203125 -9.550781 3.421875 -9.140625 3.859375 -8.859375 C 4.304688 -8.578125 4.863281 -8.34375 5.53125 -8.15625 C 6.195312 -7.976562 6.921875 -7.8125 7.703125 -7.65625 C 8.492188 -7.507812 9.222656 -7.296875 9.890625 -7.015625 C 10.566406 -6.734375 11.125 -6.347656 11.5625 -5.859375 C 12.007812 -5.367188 12.234375 -4.703125 12.234375 -3.859375 C 12.234375 -2.535156 11.734375 -1.523438 10.734375 -0.828125 C 9.742188 -0.128906 8.398438 0.21875 6.703125 0.21875 C 4.890625 0.21875 3.453125 -0.234375 2.390625 -1.140625 C 1.410156 -1.929688 0.882812 -2.972656 0.8125 -4.265625 L 2.921875 -4.265625 C 3.054688 -3.015625 3.765625 -2.171875 5.046875 -1.734375 C 5.515625 -1.585938 5.976562 -1.515625 6.4375 -1.515625 C 6.90625 -1.515625 7.335938 -1.539062 7.734375 -1.59375 C 8.128906 -1.65625 8.515625 -1.757812 8.890625 -1.90625 C 9.765625 -2.25 10.203125 -2.832031 10.203125 -3.65625 C 10.203125 -4.21875 9.976562 -4.644531 9.53125 -4.9375 C 9.09375 -5.238281 8.535156 -5.484375 7.859375 -5.671875 C 7.191406 -5.867188 6.460938 -6.039062 5.671875 -6.1875 C 4.890625 -6.34375 4.164062 -6.554688 3.5 -6.828125 C 2.832031 -7.109375 2.273438 -7.484375 1.828125 -7.953125 C 1.390625 -8.421875 1.171875 -9.070312 1.171875 -9.90625 C 1.171875 -11.132812 1.617188 -12.085938 2.515625 -12.765625 C 3.410156 -13.441406 4.734375 -13.78125 6.484375 -13.78125 C 8.148438 -13.78125 9.460938 -13.382812 10.421875 -12.59375 C 11.210938 -11.914062 11.671875 -11.023438 11.796875 -9.921875 Z M 9.734375 -9.921875 "/></g></g></g><g fill="#23272a" fill-opacity="1"><g transform="translate(147.221842, 300.09554)"><g><path d="M 1.765625 -13.5625 L 3.796875 -13.5625 L 3.796875 0 L 1.765625 0 Z M 3.875 -18.5 L 3.875 -15.84375 L 1.6875 -15.84375 L 1.6875 -18.5 Z M 3.875 -18.5 "/></g></g></g><g fill="#23272a" fill-opacity="1"><g transform="translate(158.318998, 300.09554)"><g><path d="M 8.03125 -1.625 C 8.894531 -1.625 9.660156 -1.867188 10.328125 -2.359375 C 11.003906 -2.847656 11.492188 -3.484375 11.796875 -4.265625 L 14 -4.265625 C 13.582031 -2.921875 12.820312 -1.84375 11.71875 -1.03125 C 10.5625 -0.195312 9.1875 0.21875 7.59375 0.21875 C 5.601562 0.21875 3.984375 -0.457031 2.734375 -1.8125 C 1.523438 -3.132812 0.921875 -4.789062 0.921875 -6.78125 C 0.921875 -8.769531 1.523438 -10.425781 2.734375 -11.75 C 3.984375 -13.101562 5.601562 -13.78125 7.59375 -13.78125 C 9.1875 -13.78125 10.5625 -13.363281 11.71875 -12.53125 C 12.820312 -11.71875 13.582031 -10.640625 14 -9.296875 L 11.796875 -9.296875 C 11.492188 -10.078125 11.003906 -10.710938 10.328125 -11.203125 C 9.660156 -11.691406 8.894531 -11.9375 8.03125 -11.9375 C 7.164062 -11.9375 6.425781 -11.800781 5.8125 -11.53125 C 5.207031 -11.257812 4.695312 -10.890625 4.28125 -10.421875 C 3.394531 -9.441406 2.953125 -8.226562 2.953125 -6.78125 C 2.953125 -5.332031 3.394531 -4.117188 4.28125 -3.140625 C 5.1875 -2.128906 6.4375 -1.625 8.03125 -1.625 Z M 8.03125 -1.625 "/></g></g></g><g fill="#23272a" fill-opacity="1"><g transform="translate(178.611275, 300.09554)"><g><path d="M 7.65625 -13.78125 C 9.675781 -13.78125 11.320312 -13.101562 12.59375 -11.75 C 13.78125 -10.445312 14.375 -8.789062 14.375 -6.78125 C 14.375 -4.769531 13.78125 -3.113281 12.59375 -1.8125 C 11.320312 -0.457031 9.675781 0.21875 7.65625 0.21875 C 5.625 0.21875 3.976562 -0.457031 2.71875 -1.8125 C 1.519531 -3.113281 0.921875 -4.769531 0.921875 -6.78125 C 0.921875 -8.789062 1.519531 -10.445312 2.71875 -11.75 C 3.976562 -13.101562 5.625 -13.78125 7.65625 -13.78125 Z M 7.65625 -1.625 C 9.113281 -1.625 10.269531 -2.128906 11.125 -3.140625 C 11.9375 -4.097656 12.34375 -5.3125 12.34375 -6.78125 C 12.34375 -8.25 11.9375 -9.460938 11.125 -10.421875 C 10.269531 -11.429688 9.113281 -11.9375 7.65625 -11.9375 C 6.1875 -11.9375 5.023438 -11.429688 4.171875 -10.421875 C 3.359375 -9.460938 2.953125 -8.25 2.953125 -6.78125 C 2.953125 -5.3125 3.359375 -4.097656 4.171875 -3.140625 C 5.023438 -2.128906 6.1875 -1.625 7.65625 -1.625 Z M 7.34375 -18.3125 L 10.25 -18.3125 L 7.34375 -15.46875 L 5.6875 -15.46875 Z M 7.34375 -18.3125 "/></g></g></g><g fill="#23272a" fill-opacity="1"><g transform="translate(199.44604, 300.09554)"><g><path d="M 3.796875 0 L 1.765625 0 L 1.765625 -18.984375 L 3.796875 -18.984375 Z M 3.796875 0 "/></g></g></g><g fill="#23272a" fill-opacity="1"><g transform="translate(210.5432, 300.09554)"><g><path d="M 7.65625 -13.78125 C 9.675781 -13.78125 11.320312 -13.101562 12.59375 -11.75 C 13.78125 -10.445312 14.375 -8.789062 14.375 -6.78125 C 14.375 -4.769531 13.78125 -3.113281 12.59375 -1.8125 C 11.320312 -0.457031 9.675781 0.21875 7.65625 0.21875 C 5.625 0.21875 3.976562 -0.457031 2.71875 -1.8125 C 1.519531 -3.113281 0.921875 -4.769531 0.921875 -6.78125 C 0.921875 -8.789062 1.519531 -10.445312 2.71875 -11.75 C 3.976562 -13.101562 5.625 -13.78125 7.65625 -13.78125 Z M 7.65625 -1.625 C 9.113281 -1.625 10.269531 -2.128906 11.125 -3.140625 C 11.9375 -4.097656 12.34375 -5.3125 12.34375 -6.78125 C 12.34375 -8.25 11.9375 -9.460938 11.125 -10.421875 C 10.269531 -11.429688 9.113281 -11.9375 7.65625 -11.9375 C 6.1875 -11.9375 5.023438 -11.429688 4.171875 -10.421875 C 3.359375 -9.460938 2.953125 -8.25 2.953125 -6.78125 C 2.953125 -5.3125 3.359375 -4.097656 4.171875 -3.140625 C 5.023438 -2.128906 6.1875 -1.625 7.65625 -1.625 Z M 7.65625 -1.625 "/></g></g></g><g fill="#23272a" fill-opacity="1"><g transform="translate(231.377966, 300.09554)"><g><path d="M 12.34375 -11.390625 L 12.34375 -13.5625 L 14.375 -13.5625 L 14.375 -0.40625 C 14.375 1.539062 13.816406 3.023438 12.703125 4.046875 C 11.597656 5.078125 10.101562 5.59375 8.21875 5.59375 C 6.332031 5.59375 4.859375 5.226562 3.796875 4.5 C 2.742188 3.78125 2.03125 2.820312 1.65625 1.625 L 3.90625 1.625 C 4.488281 3.039062 5.804688 3.75 7.859375 3.75 C 9.429688 3.75 10.570312 3.382812 11.28125 2.65625 C 11.988281 1.9375 12.34375 0.867188 12.34375 -0.546875 L 12.34375 -2.421875 C 11.238281 -0.804688 9.617188 0 7.484375 0 C 5.535156 0 3.945312 -0.664062 2.71875 -2 C 1.519531 -3.300781 0.921875 -4.929688 0.921875 -6.890625 C 0.921875 -8.835938 1.519531 -10.460938 2.71875 -11.765625 C 3.945312 -13.109375 5.585938 -13.78125 7.640625 -13.78125 C 9.691406 -13.78125 11.257812 -12.984375 12.34375 -11.390625 Z M 7.75 -1.84375 C 8.5 -1.84375 9.160156 -1.972656 9.734375 -2.234375 C 10.316406 -2.492188 10.816406 -2.851562 11.234375 -3.3125 C 12.046875 -4.25 12.453125 -5.441406 12.453125 -6.890625 C 12.453125 -8.335938 12.046875 -9.53125 11.234375 -10.46875 C 10.347656 -11.445312 9.1875 -11.9375 7.75 -11.9375 C 6.289062 -11.9375 5.117188 -11.445312 4.234375 -10.46875 C 3.378906 -9.507812 2.953125 -8.316406 2.953125 -6.890625 C 2.953125 -5.460938 3.378906 -4.269531 4.234375 -3.3125 C 5.117188 -2.332031 6.289062 -1.84375 7.75 -1.84375 Z M 7.75 -1.84375 "/></g></g></g><g fill="#23272a" fill-opacity="1"><g transform="translate(253.053577, 300.09554)"><g><path d="M 12.34375 -2.171875 C 11.257812 -0.578125 9.640625 0.21875 7.484375 0.21875 C 5.535156 0.21875 3.945312 -0.457031 2.71875 -1.8125 C 1.519531 -3.15625 0.921875 -4.8125 0.921875 -6.78125 C 0.921875 -8.75 1.519531 -10.40625 2.71875 -11.75 C 3.945312 -13.101562 5.582031 -13.78125 7.625 -13.78125 C 9.664062 -13.78125 11.238281 -12.972656 12.34375 -11.359375 L 12.34375 -13.5625 L 14.375 -13.5625 L 14.375 0 L 12.34375 0 Z M 7.75 -1.625 C 9.21875 -1.625 10.378906 -2.128906 11.234375 -3.140625 C 12.046875 -4.097656 12.453125 -5.3125 12.453125 -6.78125 C 12.453125 -8.25 12.046875 -9.460938 11.234375 -10.421875 C 10.378906 -11.429688 9.21875 -11.9375 7.75 -11.9375 C 6.3125 -11.9375 5.140625 -11.429688 4.234375 -10.421875 C 3.378906 -9.460938 2.953125 -8.25 2.953125 -6.78125 C 2.953125 -5.3125 3.378906 -4.097656 4.234375 -3.140625 C 5.140625 -2.128906 6.3125 -1.625 7.75 -1.625 Z M 7.75 -1.625 "/></g></g></g></svg>